# Blender v2.81 (sub 10) OBJ File: 'rubble2.blend'
# www.blender.org
mtllib rubble2.mtl
o Plane
v 1.000000 0.190775 0.226037
v -0.067568 0.129265 1.000000
v 0.393045 0.225262 -0.573379
v 0.730235 0.172905 0.604824
v 0.295224 0.117294 0.740823
v -0.572514 0.027207 0.938814
v -0.906500 -0.130078 0.748774
v -0.900087 -0.214242 0.360915
v -0.461038 -0.031849 0.146389
v -0.667543 0.038867 -0.580832
v 0.031919 0.210617 -0.785467
v 0.166228 0.143367 -0.177398
v -0.487034 0.072189 0.874387
v -0.305638 0.108582 0.744798
v -0.082907 0.073908 0.443606
v -0.302431 -0.001077 0.550869
v 0.696523 0.252084 -0.173671
v 0.865118 0.187912 0.415430
v 0.512730 0.152860 0.672823
v 0.113828 0.104050 0.870411
v -0.320041 0.130360 0.969407
v -0.739507 -0.048115 0.843794
v -0.903293 -0.172989 0.554844
v -0.680562 -0.129724 0.253652
v -0.564291 0.014504 -0.217222
v -0.317812 0.181450 -0.683150
v 0.212482 0.194328 -0.679423
v -0.250657 0.206703 -0.379115
v 0.583114 0.218332 0.024319
v 0.099074 0.210431 -0.481432
v 0.279637 0.239191 -0.375388
v -0.147405 0.094026 -0.015505
v 0.448232 0.171031 0.213713
v 0.134599 0.135681 0.375606
v -0.277301 0.149860 0.937193
v -0.606069 0.006884 0.746786
v -0.271972 0.004888 0.294997
v -0.003603 0.129325 0.645846
v 0.848261 0.213079 0.026183
v 0.797677 0.179011 0.510127
v 0.403977 0.130758 0.706823
v 0.023130 0.119809 0.935206
v -0.901690 -0.199267 0.457880
v -0.570800 -0.077822 0.200020
v -0.615917 0.052918 -0.399027
v -0.459100 0.124748 -0.479974
v 0.374671 0.171066 -0.076539
v 0.132651 0.193871 -0.329415
v 0.222933 0.195596 -0.276393
v 0.009412 0.114798 -0.096451
v 0.307230 0.126045 0.018158
v 0.432417 0.148946 0.490215
v -0.696767 -0.030603 0.811580
v -0.005207 0.143554 0.742810
v 0.106159 0.141175 0.592214
v -0.601259 -0.107944 0.455892
v 0.544784 0.296796 -0.373525
v 0.932559 0.196819 0.320734
v 0.621483 0.168930 0.638824
v 0.204526 0.102939 0.805617
v -0.904897 -0.152104 0.651809
v -0.790324 -0.179243 0.307284
v -0.512664 -0.025947 -0.035417
v -0.042215 0.181125 -0.278256
v 0.791557 0.229581 0.125178
v 0.336341 0.247594 -0.474383
v -0.304221 0.044396 0.065442
v 0.589234 0.182008 0.409268
v -0.163219 0.062138 0.260997
v -0.006403 0.108028 0.180051
v 0.150414 0.099074 0.099104
v 0.291415 0.139901 0.294660
v 0.724116 0.231521 0.219875
v 0.656675 0.210823 0.314572
v 0.515673 0.197677 0.119016
v -0.355848 0.052880 -0.116363
v -0.407474 0.107931 -0.298168
v -0.199031 0.139814 -0.197310
v 0.488080 0.281220 -0.274530
v 0.639818 0.236956 -0.074676
v 0.431375 0.232575 -0.175534
v 0.189355 0.219337 -0.428410
v -0.075792 0.232932 -0.430274
v -0.381734 -0.049400 0.348629
v -0.192669 0.020188 0.497237
v -0.491497 -0.082112 0.402260
v 0.323664 0.150501 0.524215
v 0.214912 0.151060 0.558214
v 0.025846 0.115904 0.409606
v -0.186603 0.164500 0.872399
v -0.396336 0.106289 0.809592
v -0.095905 0.154736 0.807605
v -0.602862 -0.073014 0.552857
v -0.304035 0.054722 0.647833
v -0.604466 -0.026747 0.649821
vt 0.000000 0.000000
vt 0.011687 0.031403
vt 0.012489 0.079886
vt 0.046750 0.125613
vt 0.035062 0.094210
vt 0.151616 0.094210
vt 0.067370 0.106701
vt 0.000000 0.000000
vt 0.256483 0.062807
vt 0.130246 0.078103
vt 0.166228 0.790416
vt 0.341094 0.841575
vt 0.083114 0.395208
vt 0.124671 0.592812
vt 0.696523 0.786689
vt 0.522392 0.590017
vt 0.348261 0.393345
vt 0.606241 0.839711
vt 1.000000 0.386982
vt 0.750000 0.290236
vt 0.924131 0.486908
vt 0.192042 0.699513
vt 0.865118 0.197588
vt 0.648838 0.148191
vt 0.898838 0.244936
vt 0.000000 0.000000
vt 0.216279 0.049397
vt 0.067370 0.106701
vt 0.134741 0.213403
vt 0.351020 0.262800
vt 0.202111 0.320104
vt 0.283650 0.156098
vt 0.432559 0.098794
vt 0.499929 0.205495
vt 0.932559 0.292285
vt 0.716279 0.242888
vt 0.966279 0.339633
vt 0.682559 0.195539
vt 0.466279 0.146142
vt 0.217855 0.608611
vt 0.176298 0.411007
vt 0.243668 0.517708
vt 0.150484 0.501909
vt 0.041557 0.197604
vt 0.108927 0.304305
vt 0.848261 0.586835
vt 0.598261 0.490090
vt 0.772392 0.686762
vt 0.674131 0.390163
vt 0.500000 0.193491
vt 0.250000 0.096745
vt 0.424131 0.293418
vt 0.257980 0.446367
vt 0.515960 0.892733
vt 0.303121 0.419856
vt 0.174131 0.196672
vt 0.170547 0.420787
vt 0.339979 0.015296
vt 0.213743 0.030593
vt 0.361349 0.031403
vt 0.466216 0.000000
vt 0.134741 0.213403
vt 0.147230 0.293288
vt 0.202111 0.320104
vt 0.079859 0.186587
vt 0.024978 0.159771
vt 0.037468 0.239657
vt 0.092349 0.266473
vt 0.000000 0.000000
vt 0.067370 0.106701
vt 0.000000 0.000000
vt 0.067370 0.106701
vt 0.134741 0.213403
vt 0.244795 0.031403
vt 0.139929 0.062807
vt 0.023375 0.062807
vt 0.128241 0.031403
vt 0.036666 0.191175
vt 0.024177 0.111289
vt 0.035864 0.142692
vt 0.047552 0.174096
vt 0.048353 0.222578
vt 0.049155 0.271060
vt 0.049957 0.319542
vt 0.116554 0.000000
vt 0.233108 0.000000
vt 0.349662 0.000000
vt 0.202111 0.320104
vt 0.134741 0.213403
vt 0.269481 0.426806
vt 0.067370 0.106701
vt 0.000000 0.000000
vt 0.104838 0.346358
vt 0.159719 0.373174
vt 0.214600 0.399990
vt 0.128990 0.223183
vt 0.716209 0.254892
vt 0.567299 0.312197
vt 0.418390 0.369501
vn -0.0852 -0.9860 0.1433
vn 0.4145 -0.9084 0.0546
vn 0.0512 -0.9738 -0.2217
vn 0.0179 -0.9834 -0.1807
vn 0.4183 -0.9062 0.0624
vn 0.3732 -0.9277 0.0006
vn 0.1569 -0.9748 0.1585
vn -0.2043 -0.9778 0.0460
vn 0.3980 -0.9164 -0.0422
vn 0.0125 -0.9984 -0.0555
vn 0.0977 -0.9827 -0.1575
vn 0.2479 -0.9625 -0.1098
vn -0.0146 -0.9965 0.0819
vn 0.1632 -0.9846 -0.0624
vn -0.0885 -0.9838 -0.1556
vn -0.0030 -0.9765 -0.2156
vn 0.3360 -0.9415 -0.0257
vn 0.3067 -0.9069 -0.2889
vn 0.3341 -0.8716 -0.3588
vn 0.0597 -0.9312 -0.3596
vn -0.0489 -0.9820 -0.1825
vn -0.0507 -0.9825 -0.1792
vn 0.3596 -0.8709 -0.3351
vn -0.1027 -0.9945 0.0221
vn 0.0946 -0.9897 0.1073
vn 0.3291 -0.9192 -0.2163
vn 0.0445 -0.9426 -0.3311
vn 0.0542 -0.9873 0.1492
vn 0.0779 -0.9968 -0.0178
vn 0.3676 -0.9258 0.0878
vn 0.4411 -0.8628 -0.2469
vn 0.2123 -0.9349 -0.2842
vn 0.4048 -0.9097 -0.0925
vn 0.4034 -0.9109 -0.0867
vn 0.2925 -0.9454 0.1434
vn 0.1078 -0.9867 -0.1215
vn -0.0001 -0.9999 0.0160
vn 0.3553 -0.9346 -0.0179
vn 0.2893 -0.9375 0.1932
vn 0.2919 -0.9520 -0.0924
vn 0.1117 -0.9412 0.3188
vn 0.2216 -0.9163 0.3337
vn 0.2060 -0.8467 0.4906
vn 0.3060 -0.8979 0.3165
vn 0.3784 -0.9036 0.2009
vn 0.3678 -0.8766 0.3101
vn 0.4068 -0.8893 0.2087
vn 0.2896 -0.8620 0.4161
vn 0.2400 -0.8746 0.4213
vn 0.2332 -0.8484 0.4751
vn 0.2884 -0.9456 0.1508
vn 0.2766 -0.9027 0.3297
vn 0.3069 -0.9173 0.2537
vn -0.1672 -0.9616 -0.2176
vn -0.1699 -0.9831 -0.0682
vn -0.0844 -0.9413 -0.3267
vn -0.1964 -0.9721 -0.1285
vn 0.1513 -0.9240 0.3511
vn 0.1576 -0.9698 0.1863
vn -0.0995 -0.9950 0.0060
vn -0.0957 -0.9337 -0.3449
vn -0.1974 -0.9796 -0.0380
vn 0.2056 -0.9744 0.0909
vn 0.4080 -0.8916 -0.1964
vn 0.3821 -0.8846 -0.2674
vn 0.1500 -0.9843 -0.0927
vn 0.0484 -0.9841 0.1712
vn 0.3081 -0.9359 -0.1706
vn 0.0560 -0.9965 0.0627
vn 0.0197 -0.9939 0.1085
vn 0.0120 -0.9964 0.0841
vn 0.3472 -0.9265 -0.1449
vn 0.2767 -0.9551 0.1062
vn 0.3226 -0.9455 0.0432
vn 0.2697 -0.9623 -0.0349
vn 0.3086 -0.9498 0.0522
vn 0.2688 -0.9472 0.1745
vn 0.3114 -0.9359 -0.1649
vn 0.3304 -0.9112 -0.2461
vn 0.3207 -0.9182 -0.2324
vn -0.0217 -0.9502 -0.3109
vn -0.0239 -0.9479 -0.3178
vn -0.1487 -0.9861 -0.0746
vn 0.1817 -0.9724 -0.1461
vn 0.1243 -0.9758 -0.1798
vn 0.2238 -0.9091 -0.3514
vn 0.2834 -0.9269 -0.2459
vn 0.3276 -0.8751 -0.3561
vn 0.2755 -0.9063 -0.3204
vn 0.3134 -0.9110 -0.2681
vn 0.1864 -0.9198 -0.3452
vn 0.0866 -0.9869 -0.1361
vn 0.0952 -0.9580 0.2706
vn 0.2374 -0.9713 -0.0168
vn 0.1866 -0.9821 0.0235
vn 0.0021 -0.9696 -0.2448
vn 0.0611 -0.9320 -0.3573
vn -0.0050 -0.9399 -0.3415
vn 0.3292 -0.8893 -0.3174
vn 0.3067 -0.8833 -0.3546
vn 0.3273 -0.8529 -0.4067
vn 0.3754 -0.9168 -0.1364
vn 0.3808 -0.9123 -0.1507
vn 0.2455 -0.9626 -0.1146
vn 0.2397 -0.9700 -0.0409
vn 0.3876 -0.9085 -0.1559
vn 0.2514 -0.9313 -0.2637
vn 0.1949 -0.9780 -0.0745
vn 0.1950 -0.9779 -0.0749
vn 0.2350 -0.9663 -0.1045
vn -0.1592 -0.9860 -0.0504
vn -0.1297 -0.9889 -0.0721
vn 0.0327 -0.9985 0.0438
vn 0.0370 -0.9991 0.0196
vn 0.1681 -0.9829 -0.0758
vn 0.1335 -0.9808 -0.1419
vn 0.0723 -0.9935 0.0883
vn 0.0363 -0.9832 0.1791
vn 0.2176 -0.9749 0.0466
vn 0.3566 -0.9179 -0.1738
vn 0.2393 -0.9672 -0.0848
vn 0.2572 -0.9651 -0.0489
vn 0.0656 -0.9897 -0.1269
vn 0.0936 -0.9847 -0.1467
vn 0.2067 -0.9755 0.0754
vn -0.0475 -0.9908 -0.1269
vn 0.0958 -0.9692 -0.2267
vn 0.2421 -0.9627 -0.1205
vn 0.3737 -0.8803 -0.2921
vn 0.3314 -0.9262 -0.1798
vn 0.4429 -0.8725 -0.2065
vn -0.0313 -0.9852 -0.1685
vn -0.1506 -0.9855 0.0780
vn 0.1120 -0.9863 -0.1214
vn 0.3995 -0.9117 -0.0956
vn 0.2608 -0.9059 0.3335
vn 0.3102 -0.9104 0.2739
vn 0.1098 -0.9565 -0.2704
vn 0.0339 -0.9835 -0.1775
vn 0.1596 -0.9597 0.2314
vn 0.4130 -0.9050 0.1019
vn 0.4143 -0.9085 0.0543
vn 0.2980 -0.8729 0.3863
vn 0.2131 -0.8453 0.4900
vn 0.2394 -0.9601 0.1448
vn 0.1043 -0.8687 0.4842
usemtl None
s off
f 5/1/1 54/2/1 38/3/1
f 7/4/2 36/5/2 53/6/2
f 5/1/3 55/7/3 41/8/3
f 5/1/4 38/3/4 55/7/4
f 7/4/5 53/6/5 13/9/5 22/10/5
f 10/11/6 26/12/6 28/13/6 46/14/6
f 3/15/7 66/16/7 31/17/7 27/18/7
f 1/19/8 65/20/8 39/21/8
f 10/11/9 46/14/9 45/22/9
f 4/23/10 68/24/10 40/25/10
f 12/26/11 51/27/11 50/28/11
f 32/29/12 70/30/12 67/31/12
f 32/29/13 71/32/13 70/30/13
f 33/33/14 68/24/14 72/34/14
f 18/35/15 73/36/15 58/37/15
f 18/35/16 74/38/16 73/36/16
f 33/33/17 51/27/17 75/39/17
f 25/40/18 76/41/18 63/42/18
f 25/40/19 77/43/19 76/41/19
f 28/13/20 64/44/20 78/45/20
f 17/46/21 79/47/21 57/48/21
f 17/46/22 80/49/22 79/47/22
f 29/50/23 47/51/23 81/52/23
f 27/18/24 30/53/24 11/54/24
f 27/18/25 31/17/25 82/55/25 30/53/25
f 31/17/26 49/56/26 82/55/26
f 28/13/27 83/57/27 64/44/27
f 28/13/28 26/12/28 30/53/28 83/57/28
f 26/12/29 11/54/29 30/53/29
f 22/10/30 21/58/30 6/59/30
f 22/10/31 13/9/31 21/58/31
f 13/9/32 35/60/32 2/61/32 21/58/32
f 15/62/33 84/63/33 37/64/33
f 15/62/34 85/65/34 84/63/34
f 16/66/35 56/67/35 86/68/35
f 19/69/36 87/70/36 59/71/36
f 19/69/37 88/72/37 87/70/37
f 15/62/38 37/64/38 89/73/38
f 13/9/39 90/74/39 35/60/39
f 13/9/40 91/75/40 90/74/40
f 14/76/41 54/2/41 92/77/41
f 16/66/42 93/78/42 56/67/42
f 16/66/43 94/79/43 93/78/43
f 14/76/44 36/5/44 95/80/44
f 95/80/45 61/81/45 23/82/45
f 95/80/46 36/5/46 61/81/46
f 36/5/47 7/4/47 61/81/47
f 93/78/48 95/80/48 23/82/48
f 93/78/49 94/79/49 95/80/49
f 94/79/50 14/76/50 95/80/50
f 56/67/51 43/83/51 8/84/51
f 56/67/52 93/78/52 43/83/52
f 93/78/53 23/82/53 43/83/53
f 92/77/54 60/85/54 20/86/54
f 92/77/55 54/2/55 60/85/55
f 54/2/56 5/1/56 60/85/56
f 90/74/57 92/77/57 20/86/57
f 90/74/58 91/75/58 92/77/58
f 91/75/59 14/76/59 92/77/59
f 35/60/60 42/87/60 2/61/60
f 35/60/61 90/74/61 42/87/61
f 90/74/62 20/86/62 42/87/62
f 89/73/63 69/88/63 34/89/63
f 89/73/64 37/64/64 69/88/64
f 37/64/65 9/90/65 69/88/65
f 87/70/66 89/73/66 34/89/66
f 87/70/67 88/72/67 89/73/67
f 88/72/68 15/62/68 89/73/68
f 59/71/69 52/91/69 4/92/69
f 59/71/70 87/70/70 52/91/70
f 87/70/71 34/89/71 52/91/71
f 86/68/72 62/93/72 24/94/72
f 86/68/73 56/67/73 62/93/73
f 56/67/74 8/84/74 62/93/74
f 84/63/75 86/68/75 24/94/75
f 84/63/76 85/65/76 86/68/76
f 85/65/77 16/66/77 86/68/77
f 37/64/78 44/95/78 9/90/78
f 37/64/79 84/63/79 44/95/79
f 84/63/80 24/94/80 44/95/80
f 64/44/81 48/96/81 12/26/81
f 64/44/82 83/57/82 48/96/82
f 83/57/83 30/53/83 48/96/83
f 82/55/84 48/96/84 30/53/84
f 82/55/85 49/56/85 48/96/85
f 49/56/86 12/26/86 48/96/86
f 81/52/87 49/56/87 31/17/87
f 81/52/88 47/51/88 49/56/88
f 47/51/89 12/26/89 49/56/89
f 79/47/90 81/52/90 31/17/90
f 79/47/91 80/49/91 81/52/91
f 80/49/92 29/50/92 81/52/92
f 57/48/93 66/16/93 3/15/93
f 57/48/94 79/47/94 66/16/94
f 79/47/95 31/17/95 66/16/95
f 78/45/96 50/28/96 32/29/96
f 78/45/97 64/44/97 50/28/97
f 64/44/98 12/26/98 50/28/98
f 76/41/99 78/45/99 32/29/99
f 76/41/100 77/43/100 78/45/100
f 77/43/101 28/13/101 78/45/101
f 63/42/102 67/31/102 9/90/102
f 63/42/103 76/41/103 67/31/103
f 76/41/104 32/29/104 67/31/104
f 75/39/105 47/51/105 29/50/105
f 75/39/106 51/27/106 47/51/106
f 51/27/107 12/26/107 47/51/107
f 73/36/108 75/39/108 29/50/108
f 73/36/109 74/38/109 75/39/109
f 74/38/110 33/33/110 75/39/110
f 58/37/111 65/20/111 1/19/111
f 58/37/112 73/36/112 65/20/112
f 73/36/113 29/50/113 65/20/113
f 72/34/114 52/97/114 34/98/114
f 72/34/115 68/24/115 52/97/115
f 68/24/116 4/23/116 52/97/116
f 70/30/117 72/34/117 34/98/117
f 70/30/118 71/32/118 72/34/118
f 71/32/119 33/33/119 72/34/119
f 67/31/120 69/99/120 9/90/120
f 67/31/121 70/30/121 69/99/121
f 70/30/122 34/98/122 69/99/122
f 50/28/123 71/32/123 32/29/123
f 50/28/124 51/27/124 71/32/124
f 51/27/125 33/33/125 71/32/125
f 40/25/126 74/38/126 18/35/126
f 40/25/127 68/24/127 74/38/127
f 68/24/128 33/33/128 74/38/128
f 45/22/129 77/43/129 25/40/129
f 45/22/130 46/14/130 77/43/130
f 46/14/131 28/13/131 77/43/131
f 39/21/132 80/49/132 17/46/132
f 39/21/133 65/20/133 80/49/133
f 65/20/134 29/50/134 80/49/134
f 55/7/135 85/65/135 15/62/135
f 55/7/136 38/3/136 85/65/136
f 38/3/137 16/66/137 85/65/137
f 41/8/138 88/72/138 19/69/138
f 41/8/139 55/7/139 88/72/139
f 55/7/140 15/62/140 88/72/140
f 53/6/141 91/75/141 13/9/141
f 53/6/142 36/5/142 91/75/142
f 36/5/143 14/76/143 91/75/143
f 38/3/144 94/79/144 16/66/144
f 38/3/145 54/2/145 94/79/145
f 54/2/146 14/76/146 94/79/146
