# Blender v2.81 (sub 10) OBJ File: 'rubble1.blend'
# www.blender.org
mtllib rubble1.mtl
o Plane
v -0.894596 -0.032004 0.132748
v -0.930745 -0.063768 0.344654
v -0.899986 -0.100014 0.555556
v -0.927562 -0.072438 0.705340
v -0.307273 -0.055282 0.937083
v -0.145098 -0.072096 0.917947
v 0.125266 0.030026 -1.034173
v -0.133407 0.047296 -1.053827
v -0.777778 -0.061153 0.716625
v -0.777778 -0.101613 0.555556
v -0.777778 -0.096525 0.333333
v -0.777778 -0.039855 0.111111
v -0.718803 -0.029001 -0.023892
v -0.685904 -0.001815 -0.205551
v -0.540170 -0.054397 0.740633
v -0.555556 -0.138243 0.555556
v -0.555556 -0.139812 0.333333
v -0.555556 -0.071180 0.111111
v -0.555556 -0.041135 -0.111111
v -0.555556 0.040019 -0.333333
v -0.600982 0.047848 -0.584893
v -0.333333 -0.081523 0.777778
v -0.333333 -0.108035 0.555556
v -0.333333 -0.102293 0.333333
v -0.333333 -0.070555 0.111111
v -0.333333 0.005820 -0.111111
v -0.333333 0.072451 -0.333333
v -0.333333 0.091923 -0.555556
v -0.397271 0.090422 -0.841716
v -0.111111 -0.087917 0.777778
v -0.111111 -0.134975 0.555556
v -0.111111 -0.094018 0.333333
v -0.111111 -0.059262 0.111111
v -0.111111 0.042870 -0.111111
v -0.111111 0.088883 -0.333333
v -0.111111 0.119641 -0.555556
v -0.111111 0.085535 -0.777778
v 0.047955 -0.089316 0.714621
v 0.111111 -0.160456 0.555556
v 0.111111 -0.130980 0.333333
v 0.111111 -0.070122 0.111111
v 0.111111 0.051550 -0.111111
v 0.111111 0.064472 -0.333333
v 0.111111 0.084109 -0.555556
v 0.111111 0.048563 -0.777778
v 0.244045 -0.126272 0.466267
v 0.333333 -0.118384 0.333333
v 0.333333 -0.059087 0.111111
v 0.333333 0.053086 -0.111111
v 0.333333 0.088561 -0.333333
v 0.333333 0.101583 -0.555556
v 0.342038 0.030777 -0.798793
v 0.495976 -0.084258 0.273754
v 0.555556 -0.066179 0.111111
v 0.555556 0.052462 -0.111111
v 0.555556 0.108477 -0.333333
v 0.555556 0.097051 -0.555556
v 0.573540 0.038150 -0.821196
v 0.733823 -0.038621 0.092905
v 0.807884 0.030107 -0.111111
v 0.848120 0.070342 -0.333333
v 0.866418 0.077884 -0.592271
v -0.886724 0.017138 0.138287
v -0.925833 0.045232 0.345457
v -0.895234 0.081707 0.555556
v -0.925764 0.051177 0.703541
v -0.307848 0.031004 0.938470
v -0.144001 0.046711 0.920594
v 0.121726 -0.045576 -1.025626
v -0.131488 -0.066286 -1.049196
v -0.777778 0.036863 0.717856
v -0.777778 0.083504 0.555556
v -0.777778 0.073046 0.333333
v -0.777778 0.021542 0.111111
v -0.713520 0.013943 -0.020312
v -0.681144 -0.016334 -0.203946
v -0.540794 0.029131 0.742140
v -0.555556 0.105953 0.555556
v -0.555556 0.121667 0.333333
v -0.555556 0.060282 0.111111
v -0.555556 0.028131 -0.111111
v -0.555556 -0.056736 -0.333333
v -0.598695 -0.068499 -0.583416
v -0.393422 -0.108037 -0.837866
v -0.333333 0.060368 0.777778
v -0.333333 0.084079 0.555556
v -0.333333 0.081484 0.333333
v -0.333333 0.054069 0.111111
v -0.333333 -0.023092 -0.111111
v -0.333333 -0.094407 -0.333333
v -0.333333 -0.109490 -0.555556
v -0.111111 -0.099417 -0.777778
v -0.111111 0.060235 0.777778
v -0.111111 0.106506 0.555556
v -0.111111 0.075474 0.333333
v -0.111111 0.042114 0.111111
v -0.111111 -0.055285 -0.111111
v -0.111111 -0.101982 -0.333333
v -0.111111 -0.135033 -0.555556
v 0.111111 -0.060245 -0.777778
v 0.050145 0.063159 0.716812
v 0.111111 0.142627 0.555556
v 0.111111 0.116067 0.333333
v 0.111111 0.048181 0.111111
v 0.111111 -0.069890 -0.111111
v 0.111111 -0.075212 -0.333333
v 0.111111 -0.100743 -0.555556
v 0.340424 -0.048129 -0.794896
v 0.241621 0.106641 0.463843
v 0.333333 0.097997 0.333333
v 0.333333 0.037972 0.111111
v 0.333333 -0.073803 -0.111111
v 0.333333 -0.108099 -0.333333
v 0.333333 -0.118395 -0.555556
v 0.497241 0.059409 0.275019
v 0.555556 0.043058 0.111111
v 0.555556 -0.076565 -0.111111
v 0.555556 -0.132067 -0.333333
v 0.555556 -0.115799 -0.555556
v 0.570654 -0.055088 -0.814229
v 0.737503 0.012328 0.094429
v 0.808833 -0.054114 -0.111111
v 0.851381 -0.096663 -0.333333
v 0.869878 -0.103984 -0.593704
vt 0.444444 0.888889
vt 0.444444 1.000000
vt 0.555556 1.000000
vt 0.555556 0.888889
vt 0.666667 0.888889
vt 0.000000 0.111111
vt 0.000000 0.222222
vt 0.111111 0.222222
vt 0.111111 0.111111
vt 0.000000 0.333333
vt 0.111111 0.333333
vt 0.000000 0.444444
vt 0.111111 0.444444
vt 0.000000 0.444444
vt 0.111111 0.444444
vt 0.111111 0.555556
vt 0.222222 0.222222
vt 0.222222 0.111111
vt 0.222222 0.333333
vt 0.222222 0.444444
vt 0.111111 0.555556
vt 0.222222 0.555556
vt 0.111111 0.603072
vt 0.222222 0.777778
vt 0.222222 0.666667
vt 0.333333 0.222222
vt 0.333333 0.111111
vt 0.333333 0.333333
vt 0.333333 0.444444
vt 0.333333 0.555556
vt 0.333333 0.666667
vt 0.333333 0.777778
vt 0.333333 0.888889
vt 0.333333 0.000000
vt 0.444444 0.111111
vt 0.444444 0.000000
vt 0.444444 0.222222
vt 0.444444 0.333333
vt 0.444444 0.444444
vt 0.444444 0.555556
vt 0.444444 0.666667
vt 0.444444 0.777778
vt 0.555556 0.111111
vt 0.555556 0.222222
vt 0.555556 0.333333
vt 0.555556 0.444444
vt 0.555556 0.555556
vt 0.555556 0.666667
vt 0.555556 0.777778
vt 0.666667 0.333333
vt 0.666667 0.222222
vt 0.666667 0.444444
vt 0.666667 0.555556
vt 0.666667 0.666667
vt 0.666667 0.777778
vt 0.777778 0.444444
vt 0.777778 0.333333
vt 0.777778 0.555556
vt 0.777778 0.666667
vt 0.777778 0.777778
vt 0.777778 0.888889
vt 0.555556 0.111111
vt 0.444444 0.000000
vt 0.888889 0.555556
vt 0.888889 0.444444
vt 0.888889 0.666667
vt 0.888889 0.777778
vt 0.444444 1.000000
vt 0.333333 0.888889
vt 0.444444 0.888889
vt 0.555556 0.888889
vt 0.555556 1.000000
vt 0.666667 0.888889
vt 0.000000 0.111111
vt 0.111111 0.111111
vt 0.111111 0.222222
vt 0.000000 0.222222
vt 0.111111 0.333333
vt 0.000000 0.333333
vt 0.222222 0.111111
vt 0.222222 0.222222
vt 0.222222 0.333333
vt 0.222222 0.444444
vt 0.222222 0.555556
vt 0.111111 0.603072
vt 0.222222 0.777778
vt 0.333333 0.000000
vt 0.333333 0.111111
vt 0.333333 0.222222
vt 0.333333 0.333333
vt 0.333333 0.444444
vt 0.333333 0.555556
vt 0.333333 0.666667
vt 0.222222 0.666667
vt 0.333333 0.777778
vt 0.444444 0.111111
vt 0.444444 0.222222
vt 0.444444 0.333333
vt 0.444444 0.444444
vt 0.444444 0.555556
vt 0.444444 0.666667
vt 0.444444 0.777778
vt 0.555556 0.222222
vt 0.555556 0.333333
vt 0.555556 0.444444
vt 0.555556 0.555556
vt 0.555556 0.666667
vt 0.555556 0.777778
vt 0.666667 0.222222
vt 0.666667 0.333333
vt 0.666667 0.444444
vt 0.666667 0.555556
vt 0.666667 0.666667
vt 0.666667 0.777778
vt 0.777778 0.333333
vt 0.777778 0.444444
vt 0.777778 0.555556
vt 0.777778 0.666667
vt 0.777778 0.777778
vt 0.777778 0.888889
vt 0.888889 0.444444
vt 0.888889 0.555556
vt 0.888889 0.666667
vt 0.888889 0.777778
vn -0.1158 -0.9875 0.1071
vn -0.0705 -0.9952 0.0681
vn 0.0258 -0.9761 0.2159
vn -0.1269 -0.9882 -0.0853
vn -0.1706 -0.9626 -0.2103
vn -0.0621 0.9942 -0.0878
vn -0.0786 -0.9371 0.3400
vn -0.1770 -0.9842 -0.0078
vn -0.1595 -0.9502 -0.2679
vn -0.1412 -0.9806 -0.1356
vn -0.1658 -0.9705 -0.1753
vn 0.2389 -0.9683 -0.0733
vn -0.0158 -0.9649 0.2620
vn 0.1506 -0.9885 -0.0093
vn 0.0834 -0.9720 -0.2195
vn 0.1036 -0.9673 -0.2316
vn 0.1671 -0.9356 -0.3111
vn 0.1581 -0.9848 -0.0719
vn 0.1658 -0.9856 -0.0319
vn -0.0529 -0.9891 0.1375
vn -0.0738 -0.9839 0.1629
vn -0.0417 -0.9937 -0.1044
vn 0.0435 -0.9881 -0.1478
vn 0.1004 -0.9233 -0.3708
vn 0.1159 -0.9628 -0.2440
vn 0.0982 -0.9889 -0.1118
vn 0.0366 -0.9972 0.0652
vn 0.0395 -0.9918 0.1215
vn -0.0188 -0.9559 0.2932
vn -0.1375 -0.9783 -0.1550
vn -0.1046 -0.9723 -0.2092
vn -0.0044 -0.8931 -0.4497
vn -0.0351 -0.9907 -0.1314
vn -0.1328 -0.9848 -0.1117
vn -0.1591 -0.9754 0.1529
vn 0.1113 -0.9909 -0.0763
vn 0.0513 -0.9641 -0.2606
vn 0.0250 -0.8847 -0.4655
vn 0.0572 -0.9925 -0.1081
vn 0.0929 -0.9930 -0.0730
vn 0.0097 -0.9748 0.2229
vn 0.0393 -0.9808 -0.1911
vn -0.0154 -0.8874 -0.4608
vn 0.0425 -0.9786 -0.2014
vn 0.0346 -0.9994 -0.0036
vn 0.0183 -0.9686 0.2479
vn 0.7244 -0.0211 0.6890
vn -0.0060 -0.9151 -0.4033
vn -0.1076 -0.9696 -0.2197
vn -0.0943 -0.9955 0.0045
vn -0.0349 -0.9762 0.2141
vn 0.6269 0.0327 0.7784
vn -0.0484 -0.9888 0.1409
vn -0.0569 0.9905 0.1252
vn -0.1290 0.9872 0.0933
vn -0.0484 0.9972 0.0569
vn 0.0325 0.9692 0.2442
vn -0.1148 0.9884 -0.0992
vn -0.1511 0.9694 -0.1935
vn -0.6609 0.1669 -0.7317
vn -0.0479 0.9410 0.3350
vn -0.1579 0.9874 0.0117
vn -0.1871 0.9521 -0.2418
vn -0.1693 0.9755 -0.1404
vn -0.1974 0.9611 -0.1933
vn 0.9749 0.0576 0.2149
vn -0.6445 -0.0176 0.7644
vn -0.0410 0.9699 0.2400
vn 0.1382 0.9900 0.0292
vn 0.1018 0.9755 -0.1949
vn 0.1245 0.9635 -0.2370
vn 0.1854 0.9271 -0.3258
vn 0.1628 0.9841 -0.0708
vn 0.1555 0.9874 -0.0280
vn -0.0335 0.9897 0.1390
vn -0.0495 0.9866 0.1553
vn -0.0368 0.9965 -0.0754
vn 0.0400 0.9900 -0.1354
vn 0.0921 0.9268 -0.3640
vn 0.0862 0.9629 -0.2557
vn 0.0739 0.9915 -0.1074
vn 0.0251 0.9972 0.0703
vn 0.0193 0.9949 0.0987
vn -0.0485 0.9514 0.3042
vn -0.1687 0.9775 -0.1267
vn -0.1018 0.9700 -0.2210
vn 0.0173 0.8997 -0.4362
vn -0.0272 0.9929 -0.1162
vn -0.1350 0.9824 -0.1295
vn -0.1608 0.9728 0.1666
vn 0.5492 0.6484 0.5272
vn 0.1350 0.9888 -0.0636
vn 0.0610 0.9592 -0.2761
vn 0.0282 0.8879 -0.4592
vn 0.0822 0.9927 -0.0885
vn 0.1126 0.9904 -0.0798
vn 0.0208 0.9721 0.2336
vn 0.2697 0.9546 0.1263
vn 0.0571 0.9810 -0.1854
vn -0.0046 0.8870 -0.4618
vn 0.0588 0.9785 -0.1977
vn 0.0480 0.9988 0.0134
vn 0.0202 0.9667 0.2551
vn 0.6028 -0.0267 0.7975
vn 0.0022 0.9171 -0.3986
vn -0.1021 0.9693 -0.2236
vn -0.0762 0.9970 0.0156
vn -0.0089 0.9736 0.2280
vn 0.7911 0.0008 0.6116
vn -0.0669 0.9321 -0.3560
vn -0.9322 -0.1449 -0.3317
vn -0.9807 0.0863 -0.1754
vn 0.0898 0.0604 0.9941
vn -0.9890 0.0325 0.1441
vn 0.6007 0.0043 0.7995
vn 0.2252 0.9706 -0.0845
vn -0.9196 0.3554 -0.1673
vn -0.9813 0.0199 -0.1913
vn -0.0348 -0.9388 -0.3428
vn -0.0856 0.0032 0.9963
vn 0.1127 -0.0198 0.9934
vn -0.6044 0.0148 0.7965
vn -0.1800 0.9622 0.2044
vn -0.9973 -0.0189 -0.0707
vn -0.1605 -0.9694 0.1859
vn -0.0883 -0.9891 -0.1181
vn -0.1013 -0.0153 0.9947
vn -0.0844 0.0700 0.9940
vn -0.9830 -0.0165 -0.1830
vn 0.7806 0.0258 0.6245
vn 0.1469 -0.9876 -0.0559
vn 0.5198 -0.6837 0.5122
vn 0.2407 -0.9650 0.1044
vn 0.1628 0.9858 -0.0404
vn -0.7283 0.0791 0.6807
usemtl None
s off
f 37/1/1 8/2/1 7/3/1 45/4/1
f 45/4/2 7/3/2 52/5/2
f 4/6/3 3/7/3 10/8/3 9/9/3
f 3/7/4 2/10/4 11/11/4 10/8/4
f 2/10/5 1/12/5 12/13/5 11/11/5
f 63/14/6 74/15/6 75/16/6
f 9/9/7 10/8/7 16/17/7 15/18/7
f 10/8/8 11/11/8 17/19/8 16/17/8
f 11/11/9 12/13/9 18/20/9 17/19/9
f 12/13/10 13/21/10 19/22/10 18/20/10
f 13/21/11 14/23/11 19/22/11
f 21/24/12 20/25/12 14/23/12
f 15/18/13 16/17/13 23/26/13 22/27/13
f 16/17/14 17/19/14 24/28/14 23/26/14
f 17/19/15 18/20/15 25/29/15 24/28/15
f 18/20/16 19/22/16 26/30/16 25/29/16
f 19/22/17 20/25/17 27/31/17 26/30/17
f 20/25/18 21/24/18 28/32/18 27/31/18
f 21/24/19 29/33/19 28/32/19
f 5/34/20 22/27/20 30/35/20 6/36/20
f 22/27/21 23/26/21 31/37/21 30/35/21
f 23/26/22 24/28/22 32/38/22 31/37/22
f 24/28/23 25/29/23 33/39/23 32/38/23
f 25/29/24 26/30/24 34/40/24 33/39/24
f 26/30/25 27/31/25 35/41/25 34/40/25
f 27/31/26 28/32/26 36/42/26 35/41/26
f 28/32/27 29/33/27 37/1/27 36/42/27
f 6/36/28 30/35/28 38/43/28
f 30/35/29 31/37/29 39/44/29 38/43/29
f 31/37/30 32/38/30 40/45/30 39/44/30
f 32/38/31 33/39/31 41/46/31 40/45/31
f 33/39/32 34/40/32 42/47/32 41/46/32
f 34/40/33 35/41/33 43/48/33 42/47/33
f 35/41/34 36/42/34 44/49/34 43/48/34
f 36/42/35 37/1/35 45/4/35 44/49/35
f 39/44/36 40/45/36 47/50/36 46/51/36
f 40/45/37 41/46/37 48/52/37 47/50/37
f 41/46/38 42/47/38 49/53/38 48/52/38
f 42/47/39 43/48/39 50/54/39 49/53/39
f 43/48/40 44/49/40 51/55/40 50/54/40
f 44/49/41 45/4/41 52/5/41 51/55/41
f 47/50/42 48/52/42 54/56/42 53/57/42
f 48/52/43 49/53/43 55/58/43 54/56/43
f 49/53/44 50/54/44 56/59/44 55/58/44
f 50/54/45 51/55/45 57/60/45 56/59/45
f 51/55/46 52/5/46 58/61/46 57/60/46
f 6/36/47 38/43/47 101/62/47 68/63/47
f 54/56/48 55/58/48 60/64/48 59/65/48
f 55/58/49 56/59/49 61/66/49 60/64/49
f 56/59/50 57/60/50 62/67/50 61/66/50
f 57/60/51 58/61/51 62/67/51
f 70/68/52 8/2/52 29/33/52 84/69/52
f 8/2/53 37/1/53 29/33/53
f 84/69/54 92/70/54 70/68/54
f 92/70/55 100/71/55 69/72/55 70/68/55
f 100/71/56 108/73/56 69/72/56
f 66/74/57 71/75/57 72/76/57 65/77/57
f 65/77/58 72/76/58 73/78/58 64/79/58
f 64/79/59 73/78/59 74/15/59 63/14/59
f 75/16/60 13/21/60 1/12/60 63/14/60
f 71/75/61 77/80/61 78/81/61 72/76/61
f 72/76/62 78/81/62 79/82/62 73/78/62
f 73/78/63 79/82/63 80/83/63 74/15/63
f 74/15/64 80/83/64 81/84/64 75/16/64
f 76/85/65 75/16/65 81/84/65
f 14/23/66 76/85/66 83/86/66 21/24/66
f 67/87/67 77/80/67 15/18/67 5/34/67
f 77/80/68 85/88/68 86/89/68 78/81/68
f 78/81/69 86/89/69 87/90/69 79/82/69
f 79/82/70 87/90/70 88/91/70 80/83/70
f 80/83/71 88/91/71 89/92/71 81/84/71
f 81/84/72 89/92/72 90/93/72 82/94/72
f 82/94/73 90/93/73 91/95/73 83/86/73
f 83/86/74 91/95/74 84/69/74
f 67/87/75 68/63/75 93/96/75 85/88/75
f 85/88/76 93/96/76 94/97/76 86/89/76
f 86/89/77 94/97/77 95/98/77 87/90/77
f 87/90/78 95/98/78 96/99/78 88/91/78
f 88/91/79 96/99/79 97/100/79 89/92/79
f 89/92/80 97/100/80 98/101/80 90/93/80
f 90/93/81 98/101/81 99/102/81 91/95/81
f 91/95/82 99/102/82 92/70/82 84/69/82
f 68/63/83 101/62/83 93/96/83
f 93/96/84 101/62/84 102/103/84 94/97/84
f 94/97/85 102/103/85 103/104/85 95/98/85
f 95/98/86 103/104/86 104/105/86 96/99/86
f 96/99/87 104/105/87 105/106/87 97/100/87
f 97/100/88 105/106/88 106/107/88 98/101/88
f 98/101/89 106/107/89 107/108/89 99/102/89
f 99/102/90 107/108/90 100/71/90 92/70/90
f 101/62/91 109/109/91 102/103/91
f 102/103/92 109/109/92 110/110/92 103/104/92
f 103/104/93 110/110/93 111/111/93 104/105/93
f 104/105/94 111/111/94 112/112/94 105/106/94
f 105/106/95 112/112/95 113/113/95 106/107/95
f 106/107/96 113/113/96 114/114/96 107/108/96
f 107/108/97 114/114/97 108/73/97 100/71/97
f 109/109/98 115/115/98 110/110/98
f 110/110/99 115/115/99 116/116/99 111/111/99
f 111/111/100 116/116/100 117/117/100 112/112/100
f 112/112/101 117/117/101 118/118/101 113/113/101
f 113/113/102 118/118/102 119/119/102 114/114/102
f 114/114/103 119/119/103 120/120/103 108/73/103
f 59/65/104 121/121/104 115/115/104 53/57/104
f 116/116/105 121/121/105 122/122/105 117/117/105
f 117/117/106 122/122/106 123/123/106 118/118/106
f 118/118/107 123/123/107 124/124/107 119/119/107
f 119/119/108 124/124/108 120/120/108
f 38/43/109 46/51/109 109/109/109 101/62/109
f 76/85/110 81/84/110 82/94/110
f 59/65/111 60/64/111 122/122/111 121/121/111
f 1/12/112 2/10/112 64/79/112 63/14/112
f 58/61/113 52/5/113 108/73/113 120/120/113
f 2/10/114 3/7/114 65/77/114 64/79/114
f 46/51/115 53/57/115 115/115/115 109/109/115
f 83/86/116 76/85/116 82/94/116
f 14/23/117 13/21/117 75/16/117 76/85/117
f 3/7/118 4/6/118 66/74/118 65/77/118
f 19/22/119 14/23/119 20/25/119
f 4/6/120 9/9/120 71/75/120 66/74/120
f 5/34/121 6/36/121 68/63/121 67/87/121
f 58/61/122 120/120/122 124/124/122 62/67/122
f 77/80/123 67/87/123 85/88/123
f 62/67/124 124/124/124 123/123/124 61/66/124
f 5/34/125 15/18/125 22/27/125
f 13/21/126 12/13/126 1/12/126
f 9/9/127 15/18/127 77/80/127 71/75/127
f 7/3/128 8/2/128 70/68/128 69/72/128
f 61/66/129 123/123/129 122/122/129 60/64/129
f 84/69/130 29/33/130 21/24/130 83/86/130
f 59/65/131 53/57/131 54/56/131
f 46/51/132 38/43/132 39/44/132
f 53/57/133 46/51/133 47/50/133
f 121/121/134 116/116/134 115/115/134
f 108/73/135 52/5/135 7/3/135 69/72/135
