# Blender v2.81 (sub 10) OBJ File: 'minedetector.blend'
# www.blender.org
mtllib minedetector.mtl
o Cube_Cube.001
v -0.080000 -1.000000 0.080000
v -0.080000 1.000000 0.080000
v 0.080000 -1.000000 0.080000
v 0.080000 1.000000 0.080000
v -0.080000 0.440907 0.080000
v 0.080000 0.440907 0.080000
v 0.080000 0.392320 0.080000
v -0.183788 1.563143 0.269295
v -0.080000 0.392320 0.080000
v 0.080000 0.392320 0.080000
v 0.080000 0.392320 0.080000
v -0.080000 0.392320 0.080000
v 0.037841 1.295896 0.269295
v -0.132799 1.184606 0.269295
v -0.323189 1.422763 0.269295
v -0.399862 1.554273 0.188506
v -0.291246 1.614041 0.188506
v 0.080000 0.440907 0.100000
v 0.080000 0.392320 0.100000
v -0.080000 0.392320 0.100000
v 0.100000 0.440907 0.080000
v 0.100000 0.392320 0.080000
v -0.080000 0.440907 0.100000
v -0.100000 0.440907 0.080000
v -0.100000 0.392320 0.080000
v -0.080000 -1.000000 -0.080000
v -0.080000 1.000000 -0.080000
v 0.080000 -1.000000 -0.080000
v 0.080000 1.000000 -0.080000
v -0.132799 1.184606 0.000000
v -0.080000 0.440907 -0.080000
v 0.080000 0.440907 -0.080000
v 0.080000 0.392320 -0.080000
v -0.183788 1.563143 -0.269295
v -0.080000 0.392320 -0.080000
v 0.080000 0.392320 -0.080000
v -0.183788 1.563143 0.000000
v -0.291246 1.614041 0.000000
v 0.080000 0.392320 -0.080000
v -0.080000 0.392320 -0.080000
v -0.399862 1.554273 0.000000
v -0.080000 -1.000000 0.000000
v -0.080000 1.000000 0.000000
v 0.080000 -1.000000 0.000000
v 0.080000 1.000000 0.000000
v 0.037841 1.295896 -0.269295
v 0.080000 0.440907 0.000000
v -0.132799 1.184606 -0.269295
v -0.080000 0.440907 0.000000
v -0.323189 1.422763 0.000000
v -0.080000 0.392320 0.000000
v -0.323189 1.422763 -0.269295
v 0.080000 0.392320 0.000000
v 0.080000 0.392320 0.000000
v 0.037841 1.295896 0.000000
v -0.399862 1.554273 -0.188506
v -0.291246 1.614041 -0.188506
v 0.080000 0.440907 -0.100000
v 0.080000 0.392320 -0.100000
v -0.080000 0.392320 -0.100000
v 0.100000 0.440907 -0.080000
v 0.100000 0.392320 -0.080000
v 0.100000 0.440907 0.000000
v 0.100000 0.392320 0.000000
v -0.080000 0.440907 -0.100000
v -0.100000 0.440907 -0.080000
v -0.100000 0.440907 0.000000
v -0.100000 0.392320 0.000000
v -0.100000 0.392320 -0.080000
vt 0.576818 0.625000
vt 0.625000 0.625000
vt 0.625000 0.750000
vt 0.576818 0.750000
vt 0.625000 1.000000
vt 0.576818 1.000000
vt 0.125000 0.625000
vt 0.375000 0.625000
vt 0.375000 0.750000
vt 0.125000 0.750000
vt 0.625000 0.125000
vt 0.625000 0.000000
vt 0.625000 0.000000
vt 0.625000 0.050000
vt 0.493484 0.750000
vt 0.000000 0.000000
vt 0.625000 0.750000
vt 0.625000 0.700000
vt 0.625000 0.700000
vt 0.625000 0.750000
vt 0.000000 0.000000
vt 0.000000 0.000000
vt 0.549040 0.125000
vt 0.000000 0.000000
vt 0.000000 0.000000
vt 0.000000 0.000000
vt 0.625000 1.000000
vt 0.625000 1.000000
vt 0.549040 0.750000
vt 0.549040 0.750000
vt 0.000000 0.000000
vt 0.625000 0.000000
vt 0.625000 0.050000
vt 0.576818 0.000000
vt 0.576818 0.125000
vt 0.000000 0.000000
vt 0.000000 0.000000
vt 0.576818 0.750000
vt 0.000000 0.000000
vt 0.549040 0.625000
vt 0.549040 0.625000
vt 0.549040 0.750000
vt 0.576818 0.750000
vt 0.576818 0.625000
vt 0.000000 0.000000
vt 0.625000 0.700000
vt 0.875000 0.700000
vt 0.875000 0.735000
vt 0.625000 0.735000
vt 0.625000 1.000000
vt 0.625000 0.015000
vt 0.625000 0.050000
vt 0.576818 0.750000
vt 0.625000 0.750000
vt 0.576818 1.000000
vt 0.625000 1.000000
vt 0.125000 0.750000
vt 0.375000 0.750000
vt 0.625000 0.000000
vt 0.625000 0.000000
vt 0.493484 0.750000
vt 0.000000 0.000000
vt 0.625000 0.750000
vt 0.625000 0.750000
vt 0.000000 0.000000
vt 0.000000 0.000000
vt 0.000000 0.000000
vt 0.000000 0.000000
vt 0.000000 0.000000
vt 0.000000 0.000000
vt 0.000000 0.000000
vt 0.000000 0.000000
vt 0.625000 1.000000
vt 0.625000 1.000000
vt 0.000000 0.000000
vt 0.549040 0.750000
vt 0.549040 0.750000
vt 0.000000 0.000000
vt 0.000000 0.000000
vt 0.625000 0.000000
vt 0.576818 0.000000
vt 0.000000 0.000000
vt 0.000000 0.000000
vt 0.576818 0.750000
vt 0.549040 0.750000
vt 0.576818 0.750000
vt 0.000000 0.000000
vt 0.625000 0.735000
vt 0.875000 0.735000
vt 0.625000 1.000000
vt 0.625000 0.015000
vn 1.0000 0.0000 0.0000
vn 0.0000 0.0000 1.0000
vn 0.0000 -1.0000 0.0000
vn -0.9614 -0.2750 0.0000
vn 0.7697 0.6384 0.0000
vn -1.0000 0.0000 0.0000
vn 0.1961 -0.5827 0.7887
vn 0.9900 0.1411 0.0000
vn -0.7811 -0.6244 0.0000
vn 0.0000 1.0000 0.0000
vn 0.7071 0.0000 0.7071
vn -0.7071 0.0000 0.7071
vn -0.4821 0.8761 0.0000
vn -0.3337 0.4135 0.8471
vn -0.8639 -0.5037 0.0000
vn 0.4281 0.9037 0.0000
vn 0.0000 0.0000 -1.0000
vn 0.1961 -0.5827 -0.7887
vn 0.7071 0.0000 -0.7071
vn -0.7071 0.0000 -0.7071
vn -0.3337 0.4135 -0.8471
usemtl None
s off
f 47/1/1 45/2/1 4/3/1 6/4/1
f 6/4/2 4/3/2 2/5/2 5/6/2
f 42/7/3 44/8/3 3/9/3 1/10/3
f 43/11/4 2/12/4 14/13/4 30/14/4
f 7/15/2 12/16/2 1/10/2 3/9/2
f 13/17/5 55/18/5 37/19/5 8/20/5
f 1/10/6 12/16/6 51/21/6 42/7/6
f 44/8/1 54/22/1 7/15/1 3/9/1
f 51/23/3 9/24/3 25/25/3 68/26/3
f 14/27/2 13/17/2 8/20/2 15/28/2
f 9/24/3 10/29/3 19/30/3 20/31/3
f 2/5/7 4/3/7 13/17/7 14/27/7
f 4/3/8 45/2/8 55/18/8 13/17/8
f 30/14/9 14/13/9 15/32/9 50/33/9
f 5/34/6 2/12/6 43/11/6 49/35/6
f 9/24/3 20/31/3 25/25/3
f 68/26/1 67/36/1 24/37/1 25/25/1
f 20/31/2 19/30/2 18/38/2 23/39/2
f 10/29/3 53/40/3 64/41/3 22/42/3
f 47/1/10 6/4/10 21/43/10 63/44/10
f 18/38/10 21/43/10 6/4/10
f 10/29/3 22/42/3 19/30/3
f 19/30/11 22/42/11 21/43/11 18/38/11
f 21/43/1 22/42/1 64/41/1 63/44/1
f 20/31/12 23/39/12 24/37/12 25/25/12
f 23/39/10 5/45/10 24/37/10
f 6/4/10 5/45/10 23/39/10 18/38/10
f 49/35/10 67/36/10 24/37/10 5/45/10
f 38/46/13 41/47/13 16/48/13 17/49/13
f 15/28/14 8/20/14 17/49/14 16/50/14
f 50/33/15 15/32/15 16/51/15 41/52/15
f 8/20/16 37/19/16 38/46/16 17/49/16
f 47/1/1 32/53/1 29/54/1 45/2/1
f 32/53/17 31/55/17 27/56/17 29/54/17
f 42/7/3 26/57/3 28/58/3 44/8/3
f 43/11/4 30/14/4 48/59/4 27/60/4
f 33/61/17 28/58/17 26/57/17 40/62/17
f 46/63/5 34/64/5 37/19/5 55/18/5
f 55/65/2 37/66/2 50/67/2 30/68/2
f 26/57/6 42/7/6 51/21/6 40/62/6
f 44/8/1 28/58/1 33/61/1 54/22/1
f 37/66/2 38/69/2 41/70/2 50/67/2
f 51/23/3 68/26/3 69/71/3 35/72/3
f 48/73/17 52/74/17 34/64/17 46/63/17
f 35/72/3 60/75/3 59/76/3 36/77/3
f 27/56/18 48/73/18 46/63/18 29/54/18
f 45/78/2 55/65/2 30/68/2 43/79/2
f 29/54/8 46/63/8 55/18/8 45/2/8
f 30/14/9 50/33/9 52/80/9 48/59/9
f 31/81/6 49/35/6 43/11/6 27/60/6
f 35/72/3 69/71/3 60/75/3
f 68/26/1 69/71/1 66/82/1 67/36/1
f 60/75/17 65/83/17 58/84/17 59/76/17
f 36/77/3 62/85/3 64/41/3 53/40/3
f 47/1/10 63/44/10 61/86/10 32/53/10
f 58/84/10 32/53/10 61/86/10
f 36/77/3 59/76/3 62/85/3
f 59/76/19 58/84/19 61/86/19 62/85/19
f 61/86/1 63/44/1 64/41/1 62/85/1
f 60/75/20 69/71/20 66/82/20 65/83/20
f 65/83/10 66/82/10 31/87/10
f 32/53/10 58/84/10 65/83/10 31/87/10
f 49/35/10 31/87/10 66/82/10 67/36/10
f 38/46/13 57/88/13 56/89/13 41/47/13
f 52/74/21 56/90/21 57/88/21 34/64/21
f 50/33/15 41/52/15 56/91/15 52/80/15
f 34/64/16 57/88/16 38/46/16 37/19/16
l 11 12
l 49 51
l 39 40
